P3
38 36
255
255 255 255 252 252 252 251 251 251 255 255 255 255 255 255 255 255 255 249 249 249 249 249 249 255 255 255 
249 249 249 255 255 255 250 250 250 255 255 255 250 250 250 250 250 250 254 255 255 251 255 255 
249 251 255 253 249 255 255 248 255 255 234 255 255 242 255 255 245 253 255 246 243 255 253 241 
255 255 237 255 255 237 252 255 241 249 255 246 249 255 253 254 255 255 255 252 255 255 248 241 
255 251 239 254 247 241 252 254 253 252 255 255 251 255 255 242 242 242 255 255 255 241 241 241 255 255 255 255 255 255 250 250 250 255 255 255 255 255 255 255 255 255 
255 255 255 255 255 255 248 248 248 233 233 233 255 255 255 250 250 250 238 239 241 250 255 255 
250 255 255 255 253 255 255 250 255 255 239 254 255 244 255 255 249 255 255 251 250 255 255 244 
255 255 241 252 255 241 251 255 244 249 255 250 251 255 255 255 254 255 255 253 255 255 251 246 
255 253 244 255 251 248 255 255 255 254 254 255 252 255 255 255 255 255 237 237 237 4 4 4 0 0 0 0 0 0 0 0 0 12 12 12 0 0 0 0 0 0 
0 0 0 0 0 0 4 4 4 20 20 20 236 236 236 252 252 252 254 255 253 248 255 250 
247 255 249 254 255 255 253 254 255 251 255 255 250 255 255 251 255 255 251 255 255 246 255 250 
244 255 247 242 255 247 244 255 248 249 253 252 251 252 255 252 250 255 249 252 255 245 255 255 
245 255 255 252 255 255 254 252 255 255 253 255 255 253 255 255 255 255 255 255 255 0 0 0 5 5 5 10 10 10 3 3 3 7 7 7 0 0 0 0 0 0 
0 0 0 0 0 0 0 0 0 0 0 0 255 255 255 255 255 255 254 255 251 251 255 244 
251 255 244 249 254 248 239 253 253 231 255 255 224 255 255 226 255 255 221 255 255 230 255 255 
228 255 255 226 255 255 230 255 255 241 255 255 245 255 255 241 255 255 233 255 255 218 255 255 
213 255 255 247 255 255 249 243 253 254 247 254 255 248 251 253 253 253 255 255 255 8 8 8 0 0 0 0 0 0 0 0 0 0 0 0 17 17 17 5 5 5 
0 0 0 15 15 15 4 4 4 2 2 2 255 255 255 255 255 255 243 244 239 250 252 239 
251 255 241 251 255 255 235 255 255 203 255 255 191 255 255 196 255 255 199 255 255 198 255 255 
197 255 255 193 255 255 198 255 255 217 255 255 221 255 255 211 255 255 200 255 255 189 255 255 
197 255 255 238 255 255 255 251 255 255 251 255 255 245 245 255 255 255 255 255 255 2 2 2 0 0 0 12 12 12 15 15 15 0 0 0 0 0 0 4 4 4 
0 0 0 0 0 0 0 0 0 0 0 0 248 248 248 255 255 255 255 255 251 255 255 246 
255 255 250 252 255 255 213 249 255 85 183 194 42 169 184 43 164 193 51 167 206 51 164 206 
48 166 206 40 170 204 47 167 201 69 156 199 73 154 199 58 162 199 47 168 195 38 171 188 
69 171 186 205 236 255 245 233 253 255 248 254 255 248 245 254 254 254 255 255 255 4 4 4 0 0 0 0 0 0 0 0 0 0 0 0 3 3 3 0 0 0 
3 3 3 0 0 0 6 6 6 9 9 9 252 252 252 254 254 254 254 250 251 254 244 245 
255 249 255 254 252 255 218 255 255 47 169 193 15 175 207 18 174 222 24 179 236 22 176 238 
16 179 238 5 185 236 12 182 233 37 170 229 39 169 227 19 180 226 11 185 219 14 184 207 
58 183 203 227 255 255 255 248 255 255 247 253 255 244 241 253 253 253 255 255 255 0 0 0 0 0 0 12 12 12 0 0 0 11 11 11 0 0 0 0 0 0 
8 8 8 0 0 0 3 3 3 1 1 1 255 255 255 255 255 255 255 253 254 255 250 255 
255 249 255 249 246 255 219 255 255 37 172 204 16 194 232 11 186 243 4 177 245 4 178 251 
0 181 251 0 188 249 0 186 246 18 173 240 19 173 237 0 185 235 0 190 226 0 181 205 
41 177 199 223 255 255 255 248 255 255 246 253 255 237 234 255 255 255 255 255 255 0 0 0 4 4 4 2 2 2 0 0 0 0 0 0 0 0 0 0 0 0 
2 2 2 0 0 0 9 9 9 0 0 0 255 255 255 255 255 255 255 252 253 255 250 255 
255 249 255 249 246 255 219 255 255 37 172 204 16 194 232 11 186 243 4 177 245 4 178 251 
0 181 251 0 188 249 0 186 246 18 173 240 19 173 237 0 185 235 0 190 226 0 181 205 
41 177 199 223 255 255 255 248 255 255 246 253 255 237 234 253 253 253 255 255 255 0 0 0 4 4 4 0 0 0 0 0 0 7 7 7 7 7 7 4 4 4 
0 0 0 8 8 8 6 6 6 9 9 9 244 244 244 255 255 255 255 254 255 254 244 245 
255 249 255 254 252 255 218 255 255 47 169 193 15 175 207 18 174 222 24 179 236 22 176 238 
16 179 238 5 185 236 12 182 233 37 170 229 39 169 227 19 180 226 11 185 219 14 184 207 
58 183 203 227 255 255 255 248 255 255 247 253 255 244 241 251 251 251 255 255 255 0 0 0 0 0 0 0 0 0 0 0 0 0 0 0 0 0 0 0 0 0 
0 0 0 2 2 2 0 0 0 1 1 1 250 250 250 255 255 255 255 255 251 255 255 246 
255 255 250 252 255 255 213 249 255 85 183 194 42 169 184 43 164 193 51 167 206 51 164 206 
48 166 206 40 170 204 47 167 201 69 156 199 73 154 199 58 162 199 47 168 195 38 171 188 
69 171 186 205 236 255 245 233 253 255 248 254 255 248 245 255 255 255 255 255 255 0 0 0 5 5 5 5 5 5 9 9 9 1 1 1 0 0 0 2 2 2 
10 10 10 0 0 0 0 0 0 0 0 0 255 255 255 252 252 252 243 244 239 250 252 239 
251 255 241 251 255 255 235 255 255 203 255 255 191 255 255 196 255 255 199 255 255 198 255 255 
197 255 255 193 255 255 198 255 255 217 255 255 221 255 255 211 255 255 200 255 255 189 255 255 
197 255 255 238 255 255 255 251 255 255 251 255 255 245 245 250 250 250 236 236 236 11 11 11 0 0 0 0 0 0 0 0 0 2 2 2 14 14 14 0 0 0 
0 0 0 0 0 0 0 0 0 15 15 15 240 240 240 255 255 255 254 255 251 251 255 244 
251 255 244 249 254 248 239 253 253 231 255 255 224 255 255 226 255 255 221 255 255 230 255 255 
228 255 255 226 255 255 230 255 255 241 255 255 245 255 255 241 255 255 233 255 255 218 255 255 
213 255 255 247 255 255 249 243 253 254 247 254 255 248 251 249 249 249 255 255 255 229 229 229 255 255 255 255 255 255 255 255 255 246 246 246 246 246 246 255 255 255 
245 245 245 255 255 255 255 255 255 247 247 247 255 255 255 246 246 246 234 236 233 248 255 250 
247 255 249 254 255 255 253 254 255 251 255 255 250 255 255 251 255 255 251 255 255 246 255 250 
244 255 247 242 255 247 244 255 248 249 253 252 251 252 255 252 250 255 249 252 255 245 255 255 
245 255 255 252 255 255 254 252 255 255 253 255 255 253 255 247 247 247 255 255 255 253 253 253 255 255 255 251 251 251 251 251 251 251 251 251 255 255 255 255 255 255 
246 246 246 255 255 255 246 246 246 255 255 255 234 234 234 255 255 255 254 255 255 250 255 255 
250 255 255 255 253 255 255 250 255 255 239 254 255 244 255 255 249 255 255 251 250 255 255 244 
255 255 241 252 255 241 251 255 244 249 255 250 251 255 255 255 254 255 255 253 255 255 251 246 
255 253 244 255 251 248 255 255 255 254 254 255 252 255 255 254 255 255 242 243 245 255 255 251 253 252 248 255 254 255 255 255 255 252 255 251 251 255 251 247 252 255 
252 255 255 250 251 255 255 255 255 255 255 253 251 251 249 252 255 255 233 237 240 254 254 255 
253 249 255 255 247 255 255 247 255 255 235 253 255 244 255 255 246 253 255 247 245 255 255 244 
255 255 241 252 255 243 249 255 244 248 255 250 249 255 253 255 254 255 255 253 255 255 249 246 
255 252 246 251 247 244 252 253 255 254 254 255 252 255 255 244 251 255 252 255 255 254 252 240 255 253 242 255 252 255 248 249 253 247 255 243 242 255 244 242 255 255 
245 255 255 252 255 255 255 253 255 254 253 249 253 255 249 248 255 255 251 255 255 255 250 255 
255 241 255 255 246 255 255 239 255 255 232 248 255 246 255 255 249 255 255 253 253 251 255 251 
245 255 250 242 255 251 242 255 251 245 255 253 249 255 255 255 254 255 255 253 255 254 255 255 
241 244 249 254 255 255 244 243 249 255 253 255 251 249 254 248 255 255 252 255 255 255 255 236 255 255 236 255 250 255 253 248 254 247 255 242 241 255 245 234 250 255 
243 251 255 253 249 255 255 248 253 255 251 243 255 255 245 248 255 255 247 255 255 255 252 255 
250 236 249 255 247 255 255 248 255 255 249 255 255 250 255 248 244 245 248 250 249 248 255 255 
244 255 255 242 255 255 244 255 255 248 255 255 252 255 255 255 253 255 255 253 255 247 254 255 
242 252 255 251 255 255 252 253 255 255 254 255 255 253 255 242 246 255 255 255 251 255 247 216 255 250 221 255 249 250 255 246 253 255 255 248 252 255 255 252 252 255 
255 249 255 255 248 255 255 249 253 255 252 241 255 255 241 251 255 253 244 255 255 245 255 255 
246 255 255 248 255 255 247 255 255 249 255 255 249 255 255 243 252 249 249 255 253 246 255 250 
246 255 252 246 255 252 249 253 254 252 251 255 255 249 255 255 247 255 255 249 255 250 255 255 
242 252 253 249 254 255 247 251 252 251 252 254 255 255 255 254 255 255 255 255 237 255 254 192 255 255 179 255 255 198 255 255 204 255 255 197 255 255 204 255 252 218 
255 254 226 255 251 209 255 247 197 255 250 201 255 255 220 255 255 246 244 255 255 236 255 253 
240 255 255 240 255 255 230 253 245 234 255 248 242 255 253 245 255 249 249 255 251 254 255 251 
255 255 251 255 253 253 255 253 255 255 252 255 255 251 255 255 251 255 255 252 255 255 254 255 
253 254 249 255 255 253 254 255 253 254 255 253 244 246 243 250 249 247 255 253 212 241 232 115 243 231 71 250 233 68 241 228 53 239 235 48 233 235 48 239 239 67 
245 240 76 250 237 71 247 232 81 253 239 117 255 253 174 255 255 232 250 255 254 246 255 254 
244 255 253 239 255 251 237 255 248 240 255 251 242 255 250 244 255 245 240 243 234 255 254 248 
255 251 248 255 250 250 255 250 251 255 252 251 255 254 253 252 255 255 255 255 253 255 242 236 
253 236 229 255 252 246 251 248 241 255 255 251 236 241 235 255 254 255 255 255 211 247 239 92 248 237 31 255 242 18 254 239 0 252 247 0 246 245 0 242 239 0 
248 242 8 249 237 5 243 228 23 250 236 78 255 253 156 255 255 230 254 255 255 254 255 255 
245 251 247 243 254 248 245 255 251 243 255 248 237 247 236 255 255 244 255 251 243 255 245 243 
255 241 243 255 239 243 255 240 243 255 244 243 255 247 244 255 252 244 255 250 243 255 243 237 
255 242 237 255 246 241 255 244 237 255 255 248 246 249 242 254 250 255 255 251 209 238 231 78 245 232 14 255 241 6 255 238 0 255 245 0 254 243 0 255 246 7 
255 248 12 255 243 6 253 233 22 255 239 82 255 255 164 255 255 241 254 249 255 255 248 255 
255 246 253 255 253 253 255 254 251 245 240 234 254 239 232 255 246 241 255 214 213 255 230 236 
255 225 234 255 222 232 255 223 230 255 228 230 255 233 230 255 238 230 255 238 228 255 223 221 
255 229 228 255 216 212 255 245 239 255 252 246 255 255 248 255 253 255 255 255 208 242 238 69 249 238 6 255 245 1 255 238 0 255 241 0 255 235 0 254 233 4 
255 239 8 255 236 0 251 230 15 255 238 78 255 255 160 255 255 237 250 249 255 255 250 255 
255 250 255 255 249 251 255 253 250 255 246 240 255 247 243 255 223 221 161 79 83 170 54 63 
187 47 60 197 42 56 198 42 55 191 46 53 181 51 51 170 57 49 169 58 51 177 52 56 
180 65 72 164 78 79 255 228 226 255 247 242 255 254 248 252 255 244 255 255 193 237 239 50 252 247 0 255 237 0 255 239 0 255 235 5 255 237 16 255 236 24 
255 234 18 255 237 5 255 239 22 243 230 63 255 255 156 255 255 220 248 255 255 248 255 255 
244 253 255 247 255 255 248 255 252 255 254 248 255 248 241 255 237 236 156 55 59 188 46 58 
209 37 51 225 30 47 232 27 42 227 30 40 222 33 37 212 39 35 206 40 40 205 41 52 
192 45 61 169 59 68 255 233 236 255 246 243 255 250 244 251 255 246 255 255 191 235 241 47 251 248 0 255 238 0 255 240 0 255 235 7 255 236 18 255 237 26 
255 234 18 255 238 5 255 239 23 242 231 64 255 255 159 254 255 220 247 255 255 243 255 255 
245 255 255 247 255 255 246 251 247 255 248 244 255 239 236 255 233 234 178 65 71 200 46 58 
223 35 52 240 27 45 247 24 42 247 25 38 243 28 35 236 32 33 228 35 40 223 42 59 
199 43 64 164 44 56 255 230 236 255 239 238 255 250 246 249 255 255 255 255 209 234 240 54 249 248 0 253 239 0 255 241 0 255 238 2 255 239 9 255 240 13 
254 237 7 255 240 2 255 240 27 242 228 77 255 255 175 254 255 236 248 255 255 253 253 255 
255 252 255 255 252 255 255 241 247 255 245 250 255 238 243 255 219 227 162 42 52 197 41 55 
217 32 48 231 26 43 238 23 39 239 23 36 238 24 34 232 27 32 222 31 39 206 35 53 
189 43 64 161 46 61 255 231 237 255 243 243 255 250 246 251 254 255 255 255 211 234 240 56 249 248 0 253 239 0 255 242 0 252 240 0 253 242 4 254 243 3 
251 240 0 255 241 0 255 239 29 242 227 82 255 255 181 254 255 237 248 255 255 251 255 255 
254 254 255 253 251 255 255 247 251 255 247 250 255 242 244 255 227 228 180 91 95 172 57 64 
186 51 58 196 47 53 201 44 51 203 44 49 201 45 48 199 47 46 193 48 51 183 48 62 
180 63 81 169 76 87 255 223 227 255 239 239 255 250 246 254 255 255 255 255 202 237 239 50 249 249 0 253 239 0 255 242 0 251 240 0 252 243 0 253 245 0 
250 242 0 254 242 0 255 239 29 242 227 82 255 255 175 255 255 225 245 255 251 237 255 255 
235 255 255 238 255 255 242 255 253 243 254 246 245 247 236 255 253 243 243 223 212 255 246 235 
255 244 231 255 242 229 255 241 229 255 241 227 255 242 227 255 242 227 255 240 229 255 232 235 
255 229 237 255 217 223 255 242 243 255 248 244 255 243 239 255 254 255 255 255 200 238 239 49 251 248 0 253 238 0 255 241 1 251 240 0 250 244 0 251 246 0 
250 242 0 254 242 0 255 239 30 243 226 86 255 255 177 255 255 220 247 255 246 237 255 253 
234 255 255 236 255 253 241 255 253 244 255 250 239 249 240 251 255 246 252 255 244 252 255 244 
252 255 244 252 255 244 252 255 244 254 255 246 254 255 246 255 255 246 255 255 246 255 250 246 
255 248 246 255 249 246 255 243 239 255 250 246 255 241 236 255 251 255 255 255 205 241 237 54 252 246 4 254 236 2 255 240 6 251 240 2 250 244 0 250 247 0 
250 242 0 254 241 2 255 237 37 244 224 93 255 255 184 255 255 223 254 255 246 249 255 251 
251 255 253 248 247 245 255 253 251 255 251 251 255 250 251 255 248 248 254 244 243 255 252 251 
253 253 253 252 253 255 252 253 255 253 252 255 255 250 255 255 248 255 254 251 255 235 252 246 
241 255 250 248 255 250 253 255 247 255 254 246 255 249 243 255 253 251 255 255 207 237 233 82 247 241 41 246 234 34 251 238 35 244 239 26 245 242 23 246 244 21 
243 241 19 249 238 32 249 235 64 239 223 110 255 255 193 255 255 225 255 255 243 251 250 245 
255 254 251 255 251 252 255 247 248 255 245 250 255 244 249 255 247 251 255 250 255 255 253 255 
255 254 255 254 254 255 254 254 255 255 252 255 255 250 255 255 249 255 255 253 255 236 255 255 
233 255 253 232 254 242 247 255 249 255 254 249 255 254 248 255 255 227 251 251 197 240 242 145 233 235 110 232 233 95 235 235 85 234 236 73 232 235 66 232 235 66 
230 235 73 233 233 87 234 234 112 240 238 153 248 246 189 255 255 220 255 255 237 255 255 248 
255 255 253 255 254 255 255 253 253 255 253 255 255 253 255 255 253 255 255 254 255 255 254 255 
255 255 255 255 255 255 255 254 255 255 254 255 255 254 255 255 253 255 255 254 255 249 255 255 
248 255 255 251 255 253 252 255 253 255 255 253 255 255 253 255 255 227 255 255 220 255 255 206 255 255 193 255 255 182 255 255 170 255 255 161 255 255 156 255 255 158 
255 255 165 255 255 177 255 255 191 255 255 209 255 255 223 255 255 234 255 255 244 255 255 251 
255 255 255 255 255 255 255 255 255 255 255 255 255 255 255 255 255 255 255 255 255 255 255 255 
255 255 255 255 255 255 255 255 255 255 255 255 255 255 255 255 255 255 255 255 255 255 255 255 
255 255 255 255 255 255 255 255 255 255 255 255 255 255 255 255 255 250 254 254 244 254 253 235 255 255 230 255 255 223 255 255 216 255 255 211 255 255 209 255 255 208 
255 255 213 255 255 221 255 255 232 255 255 243 255 253 250 255 251 255 253 250 255 255 255 255 
255 255 255 255 255 255 255 255 255 255 255 255 255 255 255 255 255 255 255 255 255 255 255 255 
255 255 255 255 255 255 255 255 255 255 255 255 255 255 255 255 255 255 255 255 255 255 255 255 
255 255 255 255 255 255 255 255 255 255 255 255 255 255 255 255 253 255 255 254 255 255 254 253 255 255 248 255 254 244 255 255 239 255 252 233 255 249 228 255 248 229 
255 250 234 255 250 241 255 254 251 255 252 255 255 252 255 255 250 255 255 251 255 255 254 255 
255 255 255 255 255 255 255 255 255 255 255 255 255 255 255 255 255 255 255 255 255 255 255 255 
255 255 255 255 255 255 255 255 255 255 255 255 255 255 255 255 255 255 255 255 255 255 255 255 
255 255 255 255 255 255 255 255 255 255 255 255 255 255 255 
